<svg xmlns="http://www.w3.org/2000/svg" xmlns:xlink="http://www.w3.org/1999/xlink" version="1.1" width="1000" height="1000" viewBox="0 0 1000 1000" xml:space="preserve">
<desc>Created with Fabric.js 3.5.0</desc>
<defs>
</defs>
<rect x="0" y="0" width="100%" height="100%" fill="#ffffff"/>
<g transform="matrix(-1.7756 0 0 1.7756 500.0081 500.0071)" id="596568">
<path style="stroke: none; stroke-width: 1; stroke-dasharray: none; stroke-linecap: butt; stroke-dashoffset: 0; stroke-linejoin: miter; stroke-miterlimit: 4; is-custom-font: none; font-file-url: none; fill: rgb(116,192,252); fill-rule: nonzero; opacity: 1;" vector-effect="non-scaling-stroke" transform=" translate(-256, -256)" d="M 217.9 105.9 L 340.7 228.7 c 7.2 7.2 11.3 17.1 11.3 27.3 s -4.1 20.1 -11.3 27.3 L 217.9 406.1 c -6.4 6.4 -15 9.9 -24 9.9 c -18.7 0 -33.9 -15.2 -33.9 -33.9 l 0 -62.1 L 32 320 c -17.7 0 -32 -14.3 -32 -32 l 0 -64 c 0 -17.7 14.3 -32 32 -32 l 128 0 l 0 -62.1 c 0 -18.7 15.2 -33.9 33.9 -33.9 c 9 0 17.6 3.6 24 9.9 z M 352 416 l 64 0 c 17.7 0 32 -14.3 32 -32 l 0 -256 c 0 -17.7 -14.3 -32 -32 -32 l -64 0 c -17.7 0 -32 -14.3 -32 -32 s 14.3 -32 32 -32 l 64 0 c 53 0 96 43 96 96 l 0 256 c 0 53 -43 96 -96 96 l -64 0 c -17.7 0 -32 -14.3 -32 -32 s 14.3 -32 32 -32 z" stroke-linecap="round"/>
</g>
</svg>