<svg width="413" height="201" viewBox="0 0 413 201" fill="none" xmlns="http://www.w3.org/2000/svg">
<g clip-path="url(#clip0_42_91)">
<path d="M0 0H413V51C413 133.843 345.843 201 263 201H0V0Z" fill="white"/>
<path d="M0 0H413V201H0V0Z" fill="#0A98C9"/>
<path fill-rule="evenodd" clip-rule="evenodd" d="M251.719 163.588C251.719 167.227 248.648 170.176 244.86 170.176C241.071 170.176 238 167.227 238 163.588C238 159.95 241.071 157 244.86 157C248.648 157 251.719 159.95 251.719 163.588Z" fill="#F05D22"/>
<path d="M32.103 179.516C29.7237 179.516 27.5307 179.143 25.524 178.398C23.546 177.624 21.8117 176.535 20.321 175.13C18.859 173.725 17.7123 172.077 16.881 170.185C16.0783 168.293 15.677 166.215 15.677 163.95C15.677 161.685 16.0783 159.607 16.881 157.715C17.7123 155.823 18.8733 154.175 20.364 152.77C21.8547 151.365 23.6033 150.29 25.61 149.545C27.6167 148.771 29.824 148.384 32.232 148.384C34.898 148.384 37.2917 148.828 39.413 149.717C41.563 150.606 43.369 151.896 44.831 153.587L40.359 157.715C39.2697 156.568 38.08 155.723 36.79 155.178C35.5 154.605 34.0953 154.318 32.576 154.318C31.114 154.318 29.781 154.547 28.577 155.006C27.373 155.465 26.3267 156.124 25.438 156.984C24.578 157.844 23.9043 158.862 23.417 160.037C22.9583 161.212 22.729 162.517 22.729 163.95C22.729 165.355 22.9583 166.645 23.417 167.82C23.9043 168.995 24.578 170.027 25.438 170.916C26.3267 171.776 27.3587 172.435 28.534 172.894C29.738 173.353 31.0567 173.582 32.49 173.582C33.866 173.582 35.199 173.367 36.489 172.937C37.8077 172.478 39.0833 171.719 40.316 170.658L44.272 175.689C42.638 176.922 40.7317 177.868 38.553 178.527C36.403 179.186 34.253 179.516 32.103 179.516ZM37.908 174.786V163.477H44.272V175.689L37.908 174.786ZM58.2248 179V166.702L59.8158 170.916L46.5718 148.9H53.9678L64.1158 165.799H59.8588L70.0498 148.9H76.8868L63.6428 170.916L65.1908 166.702V179H58.2248ZM79.5495 179V148.9H85.3115L98.1255 170.142H95.0725L107.671 148.9H113.39L113.476 179H106.94L106.897 158.919H108.101L98.0395 175.818H94.9005L84.6235 158.919H86.0855V179H79.5495ZM153.436 148.9H160.402V179H153.436V148.9ZM139.762 179H132.796V148.9H139.762V179ZM153.952 166.659H139.246V160.768H153.952V166.659ZM180.896 179.516C176.625 179.516 173.285 178.326 170.877 175.947C168.469 173.568 167.265 170.171 167.265 165.756V148.9H174.231V165.498C174.231 168.365 174.819 170.429 175.994 171.69C177.169 172.951 178.818 173.582 180.939 173.582C183.06 173.582 184.709 172.951 185.884 171.69C187.059 170.429 187.647 168.365 187.647 165.498V148.9H194.527V165.756C194.527 170.171 193.323 173.568 190.915 175.947C188.507 178.326 185.167 179.516 180.896 179.516ZM201.411 179V148.9H216.117C219.901 148.9 222.739 149.617 224.631 151.05C226.551 152.483 227.512 154.375 227.512 156.726C227.512 158.303 227.125 159.679 226.351 160.854C225.577 162.001 224.516 162.889 223.169 163.52C221.821 164.151 220.273 164.466 218.525 164.466L219.342 162.703C221.234 162.703 222.911 163.018 224.373 163.649C225.835 164.251 226.967 165.154 227.77 166.358C228.601 167.562 229.017 169.038 229.017 170.787C229.017 173.367 227.999 175.388 225.964 176.85C223.928 178.283 220.933 179 216.977 179H201.411ZM208.334 173.754H216.461C218.267 173.754 219.628 173.467 220.546 172.894C221.492 172.292 221.965 171.346 221.965 170.056C221.965 168.795 221.492 167.863 220.546 167.261C219.628 166.63 218.267 166.315 216.461 166.315H207.818V161.241H215.257C216.948 161.241 218.238 160.954 219.127 160.381C220.044 159.779 220.503 158.876 220.503 157.672C220.503 156.497 220.044 155.622 219.127 155.049C218.238 154.447 216.948 154.146 215.257 154.146H208.334V173.754Z" fill="white"/>
</g>
<defs>
<clipPath id="clip0_42_91">
<path d="M0 0H413V51C413 133.843 345.843 201 263 201H0V0Z" fill="white"/>
</clipPath>
</defs>
</svg>
